<?xml version="1.0" encoding="UTF-8" standalone="no"?>
<!-- Created with Inkscape (http://www.inkscape.org/) -->

<svg
   width="255.0032mm"
   height="42.835342mm"
   viewBox="0 0 903.55467 151.77877"
   id="svg2"
   version="1.1"
   inkscape:version="1.2 (dc2aedaf03, 2022-05-15)"
   sodipodi:docname="Reelz.svg"
   xml:space="preserve"
   xmlns:inkscape="http://www.inkscape.org/namespaces/inkscape"
   xmlns:sodipodi="http://sodipodi.sourceforge.net/DTD/sodipodi-0.dtd"
   xmlns="http://www.w3.org/2000/svg"
   xmlns:svg="http://www.w3.org/2000/svg"
   xmlns:rdf="http://www.w3.org/1999/02/22-rdf-syntax-ns#"
   xmlns:cc="http://creativecommons.org/ns#"
   xmlns:dc="http://purl.org/dc/elements/1.1/"><defs
     id="defs4" /><sodipodi:namedview
     id="base"
     pagecolor="#ffffff"
     bordercolor="#666666"
     borderopacity="1.0"
     inkscape:pageopacity="0.0"
     inkscape:pageshadow="2"
     inkscape:zoom="0.7"
     inkscape:cx="460.71428"
     inkscape:cy="150.71428"
     inkscape:document-units="px"
     inkscape:current-layer="g12"
     showgrid="false"
     fit-margin-top="0"
     fit-margin-left="0"
     fit-margin-right="0"
     fit-margin-bottom="0"
     inkscape:window-width="1680"
     inkscape:window-height="931"
     inkscape:window-x="0"
     inkscape:window-y="1"
     inkscape:window-maximized="1"
     inkscape:showpageshadow="0"
     inkscape:pagecheckerboard="0"
     inkscape:deskcolor="#d1d1d1" /><metadata
     id="metadata7"><rdf:RDF><cc:Work
         rdf:about=""><dc:format>image/svg+xml</dc:format><dc:type
           rdf:resource="http://purl.org/dc/dcmitype/StillImage" /><dc:title /></cc:Work></rdf:RDF></metadata><g
     inkscape:label="Layer 1"
     inkscape:groupmode="layer"
     id="layer1"
     transform="translate(39.011516,-457.21625)"><g
       id="g10"
       transform="matrix(2.3002744,0,0,-2.3002744,-39.011516,723.10037)"><g
         id="g12"
         transform="scale(0.1,0.1)"><g
           id="g2119"><path
             d="m 943.23,1014.41 236.25,0.02 c 54.67,0.04 79.03,-19.996 79.05,-64.977 0,-14.961 0,-60.586 -72.9,-60.586 l -242.4,-0.058 z m 481,-150.23 c 15.99,35.527 17.84,66.699 17.84,87.07 -0.03,90.66 -51.09,162.13 -133.12,186.45 -25.11,7.79 -49.55,12.01 -106.67,12.01 l -439.983,-0.06 0.086,-646.392 180.91,0.039 -0.031,249.394 157.148,0.039 165.15,-249.375 216.51,0.02 -191.96,263.32 c 54.58,12.129 106.33,34.903 134.12,97.485"
             style="fill:#330306;fill-opacity:1;fill-rule:nonzero;stroke:none"
             id="path28"
             inkscape:connector-curvature="0" /><path
             d="m 1694.29,761.578 393.64,0.059 -0.01,137.015 -393.66,-0.058 0,113.296 422.41,0.06 -0.02,137.87 -604.23,-0.09 0.09,-646.355 621.79,0.098 0,136.992 -440,-0.059 -0.01,121.172"
             style="fill:#330306;fill-opacity:1;fill-rule:nonzero;stroke:none"
             id="path30"
             inkscape:connector-curvature="0" /><path
             d="m 2356.16,761.656 393.63,0.059 0,137.035 -393.65,-0.059 -0.02,113.279 422.42,0.06 0,137.87 -604.24,-0.08 0.08,-646.347 621.8,0.078 0,136.992 -440.02,-0.059 0,121.172"
             style="fill:#330306;fill-opacity:1;fill-rule:nonzero;stroke:none"
             id="path32"
             inkscape:connector-curvature="0" /><path
             d="m 3018.85,1149.94 -181.05,-0.04 0.1,-646.349 455.35,0.058 0,140.508 -274.34,-0.019 -0.06,505.842"
             style="fill:#330306;fill-opacity:1;fill-rule:nonzero;stroke:none"
             id="path34"
             inkscape:connector-curvature="0" /><path
             d="m 3927.93,1150.06 -599.43,-0.06 0.02,-136.15 367.83,0.06 -367.54,-378.074 0,-132.227 599.22,0.098 0,139.629 -368.36,-0.059 368.3,378.073 -0.04,128.71"
             style="fill:#330306;fill-opacity:1;fill-rule:nonzero;stroke:none"
             id="path36"
             inkscape:connector-curvature="0" /></g><g
           id="g1317"><path
             d="m 667.695,996.914 c 0,-87.793 -71.14,-158.984 -158.965,-158.984 -87.792,-0.039 -158.972,71.133 -158.972,158.965 -0.024,87.775 71.14,158.965 158.926,158.985 87.82,0 159.004,-71.15 159.011,-158.966"
             style="fill:#dc0023;fill-opacity:1;fill-rule:nonzero;stroke:none"
             id="path38"
             inkscape:connector-curvature="0" /><path
             d="M 317.949,996.895 C 317.961,909.063 246.797,837.891 158.984,837.871 71.2031,837.871 0,909.023 0,996.836 c -0.0117188,87.794 71.1523,158.984 158.938,158.984 87.82,0.04 158.992,-71.15 159.011,-158.925"
             style="fill:#dc0023;fill-opacity:1;fill-rule:nonzero;stroke:none"
             id="path40"
             inkscape:connector-curvature="0" /><path
             d="M 317.996,655.074 C 318.008,567.281 246.848,496.051 159.023,496.051 71.2383,496.031 0.0703125,567.242 0.046875,655.016 0.03125,742.828 71.2031,814.02 158.992,814.039 c 87.805,0 159.004,-71.152 159.004,-158.965"
             style="fill:#dc0023;fill-opacity:1;fill-rule:nonzero;stroke:none"
             id="path42"
             inkscape:connector-curvature="0" /><path
             d="m 667.734,655.113 c 0.02,-87.773 -71.14,-159.004 -158.957,-159.004 -87.793,-0.019 -158.972,71.172 -158.98,158.965 -0.024,87.813 71.16,159.004 158.933,159.004 87.833,0.02 158.997,-71.172 159.004,-158.965"
             style="fill:#dc0023;fill-opacity:1;fill-rule:nonzero;stroke:none"
             id="path44"
             inkscape:connector-curvature="0" /></g></g></g></g></svg>
